<?xml version="1.0"  encoding="UTF-8" ?>
<!DOCTYPE svg PUBLIC "-//W3C//DTD SVG 1.1//EN"
"http://www.w3.org/Graphics/SVG/1.1/DTD/svg11.dtd">
<!-- Creator: fig2dev Version 3.2 Patchlevel 5 -->
<!-- CreationDate: Thu Nov  5 16:15:43 2009 -->
<!-- Magnification: 0.735 -->
<svg xmlns="http://www.w3.org/2000/svg" width="7.8in" height="4.8in" viewBox="231 1492 9372 5760">
<g style="stroke-width:.025in; stroke:black; fill:none">
<!-- Line -->
<polygon points="2265,4585
2287,4592
2310,4599
2333,4607
2356,4616
2379,4625
2403,4635
2427,4645
2451,4656
2475,4668
2500,4679
2526,4692
2552,4705
2578,4719
2605,4733
2632,4748
2660,4762
2688,4778
2716,4794
2746,4810
2775,4826
2805,4843
2835,4860
2866,4877
2897,4894
2927,4912
2959,4929
2991,4945
3022,4963
3055,4980
3086,4997
3118,5014
3151,5030
3184,5046
3216,5062
3249,5078
3282,5094
3316,5109
3350,5124
3384,5138
3418,5153
3453,5167
3489,5181
3518,5192
3547,5203
3577,5213
3608,5224
3639,5234
3670,5245
3703,5255
3737,5265
3770,5275
3804,5285
3839,5295
3875,5305
3911,5314
3948,5323
3986,5333
4025,5342
4064,5350
4103,5359
4143,5367
4183,5375
4224,5383
4266,5392
4308,5399
4349,5406
4392,5413
4435,5419
4477,5426
4520,5432
4563,5437
4606,5443
4649,5447
4691,5453
4734,5456
4776,5461
4818,5464
4861,5467
4902,5470
4944,5472
4984,5475
5026,5476
5065,5478
5106,5478
5145,5479
5184,5479
5222,5479
5261,5478
5299,5478
5336,5476
5374,5475
5411,5472
5447,5470
5484,5467
5523,5464
5563,5460
5602,5455
5641,5451
5680,5446
5720,5441
5759,5435
5799,5428
5839,5422
5879,5414
5919,5407
5959,5399
5999,5391
6040,5382
6080,5373
6121,5364
6161,5354
6201,5344
6242,5334
6282,5324
6322,5314
6362,5303
6401,5292
6440,5281
6478,5270
6517,5259
6555,5247
6592,5236
6628,5225
6664,5214
6699,5203
6733,5192
6767,5181
6800,5170
6833,5159
6864,5149
6894,5139
6925,5129
6954,5119
6982,5109
7009,5100
7036,5091
7062,5083
7087,5074
7111,5066
7135,5058
7159,5051
7182,5043
7215,5032
7246,5022
7278,5012
7308,5003
7338,4995
7367,4987
7396,4979
7424,4973
7451,4965
7479,4959
7505,4954
7532,4948
7557,4944
7582,4940
7607,4936
7631,4933
7654,4930
7678,4928
7700,4926
7722,4925
7743,4924
7764,4923
7784,4923
7804,4923
7823,4924
7842,4926
7862,4927
7880,4929
7898,4931
7917,4933
7935,4935
7953,4938
7973,4941
7993,4945
8014,4948
8035,4953
8056,4957
8078,4962
8100,4968
8123,4974
8146,4981
8169,4988
8193,4996
8217,5005
8239,5014
8263,5024
8286,5034
8308,5045
8330,5057
8352,5069
8373,5082
8393,5095
8413,5109
8431,5124
8448,5139
8465,5154
8480,5170
8495,5186
8508,5203
8521,5221
8533,5239
8543,5258
8551,5274
8558,5291
8566,5308
8571,5327
8577,5345
8582,5365
8586,5386
8590,5407
8593,5428
8594,5451
8596,5475
8596,5498
8596,5523
8595,5548
8593,5574
8590,5600
8586,5627
8581,5653
8576,5680
8569,5708
8562,5735
8554,5763
8545,5791
8535,5818
8525,5846
8513,5873
8502,5899
8488,5926
8475,5952
8461,5979
8446,6004
8430,6029
8414,6054
8397,6079
8380,6104
8361,6129
8345,6148
8329,6168
8312,6188
8294,6209
8275,6229
8256,6248
8236,6269
8215,6289
8194,6309
8171,6330
8148,6351
8124,6371
8098,6392
8072,6413
8045,6434
8018,6454
7989,6475
7960,6495
7930,6516
7899,6537
7868,6556
7836,6576
7803,6596
7770,6616
7736,6635
7701,6653
7667,6672
7632,6690
7597,6708
7561,6725
7525,6742
7489,6758
7453,6774
7416,6789
7380,6804
7343,6819
7307,6832
7269,6846
7232,6858
7195,6871
7158,6883
7120,6894
7082,6906
7044,6917
7012,6925
6980,6934
6948,6942
6915,6950
6882,6958
6848,6965
6814,6972
6779,6980
6743,6987
6707,6994
6670,7000
6634,7007
6595,7013
6557,7019
6518,7025
6478,7030
6438,7036
6397,7041
6356,7047
6314,7052
6272,7056
6229,7060
6186,7065
6142,7069
6099,7072
6054,7076
6010,7079
5965,7083
5921,7085
5876,7088
5831,7090
5785,7092
5741,7094
5696,7095
5651,7097
5607,7098
5562,7099
5518,7099
5474,7099
5430,7100
5386,7100
5343,7099
5300,7099
5258,7099
5215,7098
5173,7097
5131,7096
5090,7094
5048,7093
5008,7091
4967,7089
4926,7087
4885,7085
4845,7083
4804,7080
4763,7077
4722,7074
4681,7071
4640,7067
4598,7063
4556,7060
4514,7056
4471,7052
4428,7047
4385,7043
4342,7038
4298,7033
4254,7027
4210,7022
4165,7016
4120,7010
4075,7004
4030,6997
3984,6991
3939,6983
3893,6976
3847,6969
3802,6961
3757,6953
3712,6945
3666,6937
3621,6929
3577,6920
3532,6911
3489,6902
3445,6894
3402,6884
3360,6875
3318,6866
3276,6856
3235,6846
3195,6836
3155,6827
3116,6817
3078,6806
3040,6797
3003,6786
2967,6776
2932,6766
2897,6756
2863,6744
2829,6734
2796,6723
2763,6713
2732,6702
2700,6691
2670,6680
2640,6669
2603,6655
2567,6641
2531,6626
2496,6611
2461,6597
2427,6581
2393,6565
2359,6549
2325,6533
2292,6516
2259,6499
2226,6481
2193,6463
2161,6445
2129,6426
2097,6407
2065,6387
2034,6367
2004,6348
1974,6328
1944,6307
1915,6287
1887,6266
1859,6245
1832,6224
1805,6203
1779,6182
1754,6161
1729,6140
1705,6119
1682,6098
1660,6077
1638,6057
1616,6036
1596,6015
1577,5995
1557,5975
1538,5955
1521,5935
1503,5915
1486,5896
1470,5876
1454,5856
1438,5837
1419,5811
1399,5785
1380,5760
1361,5733
1343,5707
1325,5680
1308,5653
1291,5626
1274,5598
1258,5570
1241,5542
1226,5514
1211,5486
1196,5458
1182,5429
1168,5401
1156,5373
1143,5345
1131,5318
1120,5292
1110,5265
1100,5240
1091,5215
1083,5191
1075,5167
1068,5145
1062,5123
1056,5102
1051,5082
1047,5063
1044,5045
1040,5026
1038,5009
1036,4993
1034,4976
1033,4958
1033,4942
1033,4926
1034,4910
1036,4895
1039,4881
1042,4866
1047,4853
1052,4839
1059,4826
1065,4814
1073,4801
1082,4790
1092,4779
1103,4768
1114,4757
1127,4747
1140,4737
1154,4729
1168,4720
1183,4711
1200,4703
1216,4695
1233,4687
1251,4680
1269,4673
1288,4665
1308,4659
1328,4651
1347,4645
1366,4639
1386,4632
1407,4626
1428,4620
1451,4613
1474,4607
1499,4601
1524,4595
1550,4589
1577,4583
1605,4577
1633,4572
1662,4567
1692,4563
1722,4558
1752,4554
1783,4552
1815,4549
1846,4546
1877,4545
1909,4543
1940,4543
1971,4543
2001,4545
2032,4546
2062,4549
2093,4552
2122,4555
2151,4560
2180,4565
2209,4571
2237,4578
2265,4585
" style="stroke:#000000;stroke-width:6;
stroke-linejoin:bevel; stroke-linecap:butt;
fill:#86c87c;
"/>
<!-- Line -->
<polygon points="1560,4023
1588,4014
1616,4005
1645,3997
1674,3986
1703,3976
1733,3965
1763,3954
1794,3942
1825,3930
1857,3917
1890,3904
1922,3890
1956,3876
1990,3862
2024,3847
2059,3833
2095,3817
2131,3802
2167,3786
2203,3770
2241,3754
2278,3738
2317,3722
2355,3706
2393,3689
2431,3673
2470,3657
2509,3642
2548,3626
2587,3611
2626,3595
2665,3581
2704,3566
2743,3551
2781,3538
2820,3524
2858,3512
2897,3498
2935,3487
2972,3475
3010,3464
3048,3454
3085,3443
3123,3434
3160,3424
3198,3416
3236,3408
3274,3401
3310,3393
3347,3387
3384,3382
3421,3376
3459,3371
3498,3367
3536,3362
3576,3359
3615,3356
3655,3353
3695,3351
3737,3348
3778,3347
3820,3346
3862,3345
3905,3344
3948,3344
3992,3345
4035,3346
4078,3346
4122,3348
4166,3350
4210,3352
4254,3354
4298,3357
4341,3361
4385,3364
4428,3368
4471,3372
4513,3376
4555,3381
4596,3385
4638,3390
4678,3396
4718,3401
4757,3407
4795,3412
4832,3418
4870,3424
4906,3430
4941,3436
4976,3443
5010,3448
5043,3455
5076,3461
5109,3468
5139,3474
5170,3481
5200,3487
5230,3494
5231,3494
5265,3502
5299,3510
5333,3518
5366,3526
5399,3534
5431,3543
5464,3552
5496,3560
5528,3569
5560,3578
5591,3587
5623,3596
5655,3605
5686,3615
5718,3623
5749,3633
5780,3642
5810,3651
5841,3660
5872,3669
5902,3678
5932,3687
5963,3695
5992,3703
6021,3712
6051,3720
6079,3728
6108,3736
6137,3743
6165,3750
6192,3757
6220,3764
6247,3770
6273,3776
6301,3781
6327,3787
6354,3792
6380,3797
6406,3802
6434,3806
6460,3810
6487,3814
6514,3817
6542,3820
6570,3823
6598,3826
6627,3828
6657,3831
6687,3833
6717,3834
6749,3836
6780,3837
6812,3839
6845,3839
6878,3840
6911,3840
6946,3840
6980,3840
7014,3840
7049,3839
7083,3839
7119,3837
7153,3836
7188,3835
7223,3833
7257,3831
7291,3829
7325,3827
7358,3825
7391,3822
7424,3820
7455,3817
7487,3814
7517,3811
7547,3808
7576,3804
7605,3801
7633,3798
7660,3794
7687,3790
7713,3786
7738,3783
7763,3779
7788,3775
7819,3770
7850,3764
7880,3759
7909,3753
7939,3746
7967,3740
7995,3733
8023,3725
8050,3718
8077,3710
8103,3701
8128,3692
8152,3683
8175,3673
8198,3663
8220,3652
8241,3641
8260,3629
8278,3617
8295,3605
8311,3592
8326,3580
8339,3567
8351,3553
8362,3540
8372,3525
8380,3511
8387,3496
8393,3481
8398,3465
8402,3450
8405,3434
8407,3418
8408,3403
8408,3387
8407,3371
8405,3354
8402,3336
8399,3318
8394,3299
8388,3279
8382,3260
8375,3239
8366,3218
8355,3196
8344,3175
8333,3152
8319,3130
8305,3107
8289,3084
8273,3061
8255,3038
8237,3014
8217,2991
8197,2968
8175,2945
8153,2922
8131,2900
8107,2878
8082,2856
8057,2835
8031,2813
8004,2793
7977,2773
7949,2752
7920,2733
7890,2714
7859,2695
7837,2681
7813,2668
7790,2654
7765,2641
7740,2628
7714,2614
7687,2600
7660,2587
7632,2574
7603,2561
7573,2547
7543,2533
7512,2520
7479,2506
7446,2493
7413,2480
7379,2466
7343,2453
7307,2439
7271,2425
7234,2412
7196,2399
7158,2385
7119,2372
7080,2359
7040,2346
7000,2333
6959,2320
6919,2308
6878,2295
6836,2283
6795,2270
6754,2259
6713,2247
6671,2235
6630,2224
6589,2212
6547,2201
6506,2191
6464,2180
6423,2170
6383,2159
6342,2149
6301,2140
6260,2130
6220,2120
6179,2111
6138,2101
6098,2092
6057,2083
6021,2075
5984,2067
5946,2059
5909,2051
5871,2043
5833,2035
5795,2027
5756,2019
5716,2012
5677,2004
5637,1996
5596,1988
5555,1980
5514,1973
5472,1965
5429,1957
5386,1949
5343,1942
5300,1935
5256,1927
5211,1920
5167,1912
5123,1905
5078,1899
5033,1891
4988,1885
4943,1878
4898,1871
4853,1865
4808,1859
4763,1853
4718,1846
4674,1841
4629,1835
4585,1830
4541,1825
4498,1820
4455,1815
4413,1810
4371,1806
4329,1801
4288,1798
4247,1794
4206,1790
4166,1787
4127,1784
4089,1781
4050,1778
4012,1776
3975,1774
3938,1771
3901,1769
3865,1768
3829,1765
3794,1765
3759,1763
3717,1762
3677,1761
3637,1760
3596,1760
3555,1760
3515,1760
3474,1761
3434,1762
3393,1763
3351,1764
3311,1765
3270,1767
3228,1769
3187,1771
3146,1774
3104,1777
3063,1781
3021,1785
2979,1788
2938,1793
2897,1797
2855,1801
2814,1807
2773,1812
2733,1818
2693,1824
2653,1829
2614,1836
2575,1843
2536,1849
2498,1856
2461,1863
2425,1871
2388,1879
2353,1886
2317,1894
2283,1902
2249,1910
2216,1918
2184,1927
2151,1936
2120,1945
2089,1954
2058,1962
2028,1972
1998,1981
1969,1990
1940,2001
1907,2012
1874,2023
1841,2035
1808,2048
1776,2060
1743,2073
1710,2086
1677,2100
1644,2114
1612,2129
1579,2143
1546,2159
1513,2174
1480,2190
1447,2207
1415,2223
1383,2241
1350,2258
1318,2276
1286,2294
1255,2312
1225,2330
1194,2348
1164,2367
1135,2386
1106,2404
1078,2422
1050,2442
1023,2460
998,2478
972,2497
948,2516
923,2534
900,2553
878,2570
856,2589
835,2606
815,2624
795,2641
775,2659
756,2677
738,2695
716,2716
695,2739
674,2761
654,2783
634,2806
614,2830
595,2853
576,2877
557,2901
540,2925
522,2950
504,2975
487,3000
471,3026
456,3052
440,3077
426,3102
412,3127
399,3152
386,3177
374,3201
363,3226
352,3249
341,3273
332,3296
323,3318
314,3340
306,3361
299,3382
292,3401
286,3421
280,3440
274,3459
270,3478
264,3498
260,3518
255,3538
251,3559
247,3579
245,3598
243,3617
241,3637
240,3657
240,3676
241,3696
242,3715
245,3734
249,3753
252,3771
258,3789
264,3806
271,3823
280,3839
289,3856
299,3871
310,3886
323,3900
336,3914
350,3927
365,3939
381,3951
398,3963
415,3974
435,3985
451,3993
468,4001
485,4009
504,4017
523,4024
543,4031
565,4039
587,4045
611,4052
635,4058
661,4064
687,4070
715,4075
743,4080
773,4085
803,4089
834,4092
865,4095
898,4097
931,4100
964,4100
998,4101
1032,4101
1067,4100
1102,4100
1137,4097
1172,4095
1208,4091
1243,4088
1278,4083
1314,4078
1348,4072
1383,4066
1419,4058
1454,4051
1488,4042
1524,4033
1560,4023
" style="stroke:#000000;stroke-width:6;
stroke-linejoin:bevel; stroke-linecap:butt;
fill:#ebffa9;
"/>
<!-- Text -->
<text xml:space="preserve" x="1455" y="2744" stroke="#000000" fill="#000000" font-family="Arial" font-style="normal" font-weight="normal" font-size="124" text-anchor="start">Union catalog</text>
<!-- Text -->
<text xml:space="preserve" x="5655" y="2513" stroke="#000000" fill="#000000" font-family="Arial" font-style="normal" font-weight="normal" font-size="124" text-anchor="start">Integrated Library</text>
<!-- Text -->
<text xml:space="preserve" x="5655" y="2678" stroke="#000000" fill="#000000" font-family="Arial" font-style="normal" font-weight="normal" font-size="124" text-anchor="start">System</text>
<!-- Text -->
<text xml:space="preserve" x="6713" y="3439" stroke="#000000" fill="#000000" font-family="Arial" font-style="normal" font-weight="normal" font-size="124" text-anchor="start">Linked Data</text>
<!-- Text -->
<text xml:space="preserve" x="6713" y="3648" stroke="#000000" fill="#000000" font-family="Arial" font-style="normal" font-weight="normal" font-size="124" text-anchor="start">Semantic Web</text>
<!-- Text -->
<text xml:space="preserve" x="462" y="3240" stroke="#000000" fill="#000000" font-family="Arial" font-style="normal" font-weight="normal" font-size="124" text-anchor="start">Network level</text>
<!-- Text -->
<text xml:space="preserve" x="462" y="3450" stroke="#000000" fill="#000000" font-family="Arial" font-style="normal" font-weight="normal" font-size="124" text-anchor="start">syndication. Facebook twitter</text>
<!-- Text -->
<text xml:space="preserve" x="2248" y="2149" stroke="#000000" fill="#000000" font-family="Arial" font-style="normal" font-weight="normal" font-size="124" text-anchor="start">Personal consumption</text>
<!-- Text -->
<text xml:space="preserve" x="2248" y="2359" stroke="#000000" fill="#000000" font-family="Arial" font-style="normal" font-weight="normal" font-size="124" text-anchor="start">RSS readers, bloglines</text>
<!-- Text -->
<text xml:space="preserve" x="4100" y="2182" stroke="#000000" fill="#000000" font-family="Arial" font-style="normal" font-weight="normal" font-size="124" text-anchor="start">OAI-PMH</text>
<!-- Text -->
<text xml:space="preserve" x="4100" y="2392" stroke="#000000" fill="#000000" font-family="Arial" font-style="normal" font-weight="normal" font-size="124" text-anchor="start">Resource shares</text>
<!-- Text -->
<text xml:space="preserve" x="6481" y="5897" stroke="#000000" fill="#000000" font-family="Arial" font-style="normal" font-weight="normal" font-size="124" text-anchor="start">university's staff &#38; students</text>
<!-- Text -->
<text xml:space="preserve" x="6481" y="5688" stroke="#000000" fill="#000000" font-family="Arial" font-style="normal" font-weight="normal" font-size="124" text-anchor="start">Material produced by local</text>
<!-- Ellipse -->
<ellipse transform="translate(4607,4332) rotate(-0.00000000)" rx="1234" ry="264"
 style="stroke:#000000;stroke-width:6;"/>
<!-- Ellipse -->
<ellipse transform="translate(4817,4332) rotate(-0.00000000)" rx="937" ry="200"
 style="stroke:#000000;stroke-width:6;"/>
<!-- Ellipse -->
<ellipse transform="translate(4982,4332) rotate(-0.00000000)" rx="705" ry="151"
 style="stroke:#000000;stroke-width:6;"/>
<!-- Line -->
<polyline points="5189,4624
6029,5685
" style="stroke:#000000;stroke-width:6;
stroke-linejoin:miter; stroke-linecap:butt;
"/>
<!-- Arrowhead on XXXpoint 5134 4555 - 6091 5762-->
<polygon points="6011 5697
6084 5752
6046 5669
6011 5697

" style="stroke:#000000;stroke-width:6;
fill:#000000;"/>
<!-- Arrowhead on XXXpoint 6085 5754 - 5127 4547-->
<polygon points="5206 4612
5134 4557
5172 4639
5206 4612

" style="stroke:#000000;stroke-width:6;
fill:#000000;"/>
<!-- Line -->
<polyline points="5066,4644
5495,5968
" style="stroke:#000000;stroke-width:6;
stroke-linejoin:miter; stroke-linecap:butt;
"/>
<!-- Arrowhead on XXXpoint 5039 4560 - 5525 6062-->
<polygon points="5473 5974
5522 6051
5515 5960
5473 5974

" style="stroke:#000000;stroke-width:6;
fill:#000000;"/>
<!-- Arrowhead on XXXpoint 5522 6051 - 5036 4550-->
<polygon points="5087 4638
5040 4561
5045 4651
5087 4638

" style="stroke:#000000;stroke-width:6;
fill:#000000;"/>
<!-- Line -->
<polyline points="4988,4646
4929,6162
" style="stroke:#000000;stroke-width:6;
stroke-linejoin:miter; stroke-linecap:butt;
"/>
<!-- Arrowhead on XXXpoint 4990 4557 - 4926 6260-->
<polygon points="4908 6159
4927 6248
4952 6161
4908 6159

" style="stroke:#000000;stroke-width:6;
fill:#000000;"/>
<!-- Arrowhead on XXXpoint 4927 6250 - 4990 4547-->
<polygon points="5008 4648
4990 4559
4964 4646
5008 4648

" style="stroke:#000000;stroke-width:6;
fill:#000000;"/>
<!-- Line -->
<polyline points="4897,4643
4264,6234
" style="stroke:#000000;stroke-width:6;
stroke-linejoin:miter; stroke-linecap:butt;
"/>
<!-- Arrowhead on XXXpoint 4929 4560 - 4228 6326-->
<polygon points="4244 6224
4233 6315
4285 6240
4244 6224

" style="stroke:#000000;stroke-width:6;
fill:#000000;"/>
<!-- Arrowhead on XXXpoint 4233 6316 - 4932 4551-->
<polygon points="4915 4651
4928 4562
4874 4635
4915 4651

" style="stroke:#000000;stroke-width:6;
fill:#000000;"/>
<!-- Line -->
<polyline points="4771,4626
3397,6184
" style="stroke:#000000;stroke-width:6;
stroke-linejoin:miter; stroke-linecap:butt;
"/>
<!-- Arrowhead on XXXpoint 4829 4560 - 3332 6258-->
<polygon points="3382 6168
3340 6249
3415 6197
3382 6168

" style="stroke:#000000;stroke-width:6;
fill:#000000;"/>
<!-- Arrowhead on XXXpoint 3340 6250 - 4835 4552-->
<polygon points="4785 4641
4827 4561
4752 4613
4785 4641

" style="stroke:#000000;stroke-width:6;
fill:#000000;"/>
<!-- Line -->
<polyline points="3891,4509
1541,4848
" style="stroke:#000000;stroke-width:6;
stroke-linejoin:miter; stroke-linecap:butt;
"/>
<!-- Arrowhead on XXXpoint 3978 4496 - 1444 4862-->
<polygon points="1539 4826
1455 4861
1546 4870
1539 4826

" style="stroke:#000000;stroke-width:6;
fill:#000000;"/>
<!-- Arrowhead on XXXpoint 1455 4861 - 3988 4495-->
<polygon points="3892 4530
3976 4496
3885 4487
3892 4530

" style="stroke:#000000;stroke-width:6;
fill:#000000;"/>
<!-- Line -->
<polyline points="3992,4130
1705,3654
" style="stroke:#000000;stroke-width:6;
stroke-linejoin:miter; stroke-linecap:butt;
"/>
<!-- Arrowhead on XXXpoint 4078 4147 - 1609 3634-->
<polygon points="1711 3633
1621 3637
1702 3676
1711 3633

" style="stroke:#000000;stroke-width:6;
fill:#000000;"/>
<!-- Arrowhead on XXXpoint 1620 3637 - 4088 4150-->
<polygon points="3985 4150
4076 4147
3994 4108
3985 4150

" style="stroke:#000000;stroke-width:6;
fill:#000000;"/>
<!-- Line -->
<polyline points="4542,4055
2620,2856
" style="stroke:#000000;stroke-width:6;
stroke-linejoin:miter; stroke-linecap:butt;
"/>
<!-- Arrowhead on XXXpoint 4616 4101 - 2536 2805-->
<polygon points="2633 2839
2547 2811
2609 2876
2633 2839

" style="stroke:#000000;stroke-width:6;
fill:#000000;"/>
<!-- Arrowhead on XXXpoint 2546 2811 - 4625 4106-->
<polygon points="4528 4071
4615 4100
4552 4034
4528 4071

" style="stroke:#000000;stroke-width:6;
fill:#000000;"/>
<!-- Line -->
<polyline points="4765,4032
3624,2549
" style="stroke:#000000;stroke-width:6;
stroke-linejoin:miter; stroke-linecap:butt;
"/>
<!-- Arrowhead on XXXpoint 4818 4101 - 3564 2471-->
<polygon points="3642 2536
3571 2481
3607 2564
3642 2536

" style="stroke:#000000;stroke-width:6;
fill:#000000;"/>
<!-- Arrowhead on XXXpoint 3571 2480 - 4825 4109-->
<polygon points="4746 4043
4818 4100
4781 4016
4746 4043

" style="stroke:#000000;stroke-width:6;
fill:#000000;"/>
<!-- Line -->
<polyline points="4887,4026
4424,2563
" style="stroke:#000000;stroke-width:6;
stroke-linejoin:miter; stroke-linecap:butt;
"/>
<!-- Arrowhead on XXXpoint 4913 4109 - 4394 2469-->
<polygon points="4445 2557
4398 2480
4403 2570
4445 2557

" style="stroke:#000000;stroke-width:6;
fill:#000000;"/>
<!-- Arrowhead on XXXpoint 4398 2480 - 4916 4119-->
<polygon points="4865 4030
4912 4108
4906 4017
4865 4030

" style="stroke:#000000;stroke-width:6;
fill:#000000;"/>
<!-- Line -->
<polyline points="5001,4022
5056,2666
" style="stroke:#000000;stroke-width:6;
stroke-linejoin:miter; stroke-linecap:butt;
"/>
<!-- Arrowhead on XXXpoint 4998 4109 - 5059 2568-->
<polygon points="5077 2669
5059 2580
5033 2666
5077 2669

" style="stroke:#000000;stroke-width:6;
fill:#000000;"/>
<!-- Arrowhead on XXXpoint 5059 2579 - 4998 4119-->
<polygon points="4979 4018
4998 4108
5023 4020
4979 4018

" style="stroke:#000000;stroke-width:6;
fill:#000000;"/>
<!-- Line -->
<polyline points="5149,4036
5622,2858
" style="stroke:#000000;stroke-width:6;
stroke-linejoin:miter; stroke-linecap:butt;
"/>
<!-- Arrowhead on XXXpoint 5116 4116 - 5658 2767-->
<polygon points="5641 2868
5654 2778
5600 2852
5641 2868

" style="stroke:#000000;stroke-width:6;
fill:#000000;"/>
<!-- Arrowhead on XXXpoint 5655 2777 - 5112 4126-->
<polygon points="5128 4025
5117 4115
5170 4041
5128 4025

" style="stroke:#000000;stroke-width:6;
fill:#000000;"/>
<!-- Line -->
<polyline points="5281,4066
6093,3140
" style="stroke:#000000;stroke-width:6;
stroke-linejoin:miter; stroke-linecap:butt;
"/>
<!-- Arrowhead on XXXpoint 5223 4132 - 6157 3066-->
<polygon points="6107 3156
6149 3075
6074 3127
6107 3156

" style="stroke:#000000;stroke-width:6;
fill:#000000;"/>
<!-- Arrowhead on XXXpoint 6151 3075 - 5217 4140-->
<polygon points="5266 4050
5225 4131
5299 4079
5266 4050

" style="stroke:#000000;stroke-width:6;
fill:#000000;"/>
<!-- Line -->
<polyline points="5496,4122
6536,3579
" style="stroke:#000000;stroke-width:6;
stroke-linejoin:miter; stroke-linecap:butt;
"/>
<!-- Arrowhead on XXXpoint 5418 4163 - 6623 3533-->
<polygon points="6545 3598
6613 3538
6524 3559
6545 3598

" style="stroke:#000000;stroke-width:6;
fill:#000000;"/>
<!-- Arrowhead on XXXpoint 6614 3538 - 5408 4167-->
<polygon points="5486 4101
5419 4162
5507 4141
5486 4101

" style="stroke:#000000;stroke-width:6;
fill:#000000;"/>
<!-- Line -->
<polyline points="4531,4599
2325,5778
" style="stroke:#000000;stroke-width:6;
stroke-linejoin:miter; stroke-linecap:butt;
"/>
<!-- Arrowhead on XXXpoint 4608 4557 - 2238 5825-->
<polygon points="2315 5758
2248 5819
2336 5796
2315 5758

" style="stroke:#000000;stroke-width:6;
fill:#000000;"/>
<!-- Arrowhead on XXXpoint 2248 5820 - 4618 4552-->
<polygon points="4540 4619
4607 4558
4519 4580
4540 4619

" style="stroke:#000000;stroke-width:6;
fill:#000000;"/>
<!-- Line -->
<polyline points="5342,4540
6869,5476
" style="stroke:#000000;stroke-width:6;
stroke-linejoin:miter; stroke-linecap:butt;
"/>
<!-- Arrowhead on XXXpoint 5267 4493 - 6953 5527-->
<polygon points="6856 5494
6943 5522
6879 5456
6856 5494

" style="stroke:#000000;stroke-width:6;
fill:#000000;"/>
<!-- Arrowhead on XXXpoint 6944 5522 - 5259 4488-->
<polygon points="5355 4521
5269 4494
5332 4559
5355 4521

" style="stroke:#000000;stroke-width:6;
fill:#000000;"/>
<!-- Text -->
<text xml:space="preserve" x="1190" y="5092" stroke="#000000" fill="#000000" font-family="Arial" font-style="normal" font-weight="normal" font-size="124" text-anchor="start">Bought resources</text>
<!-- Text -->
<text xml:space="preserve" x="7275" y="7242" stroke="#000000" fill="#000000" font-family="Arial" font-style="normal" font-weight="normal" font-size="159" text-anchor="start">Production environments</text>
<!-- Text -->
<text xml:space="preserve" x="5092" y="6316" stroke="#000000" fill="#000000" font-family="Arial" font-style="normal" font-weight="normal" font-size="124" text-anchor="start">Aggregated from resource shares</text>
<!-- Text -->
<text xml:space="preserve" x="3373" y="6481" stroke="#000000" fill="#000000" font-family="Arial" font-style="normal" font-weight="normal" font-size="124" text-anchor="start">Digitized material</text>
<!-- Text -->
<text xml:space="preserve" x="2116" y="6018" stroke="#000000" fill="#000000" font-family="Arial" font-style="normal" font-weight="normal" font-size="124" text-anchor="start">Licensed resources</text>
<!-- Text -->
<text xml:space="preserve" x="6085" y="4530" stroke="#000000" fill="#000000" font-family="Arial" font-style="normal" font-weight="normal" font-size="283" text-anchor="start">Library</text>
<!-- Text -->
<text xml:space="preserve" x="297" y="1653" stroke="#000000" fill="#000000" font-family="Arial" font-style="normal" font-weight="normal" font-size="159" text-anchor="start">Consumption environments</text>
</g>
</svg>
